<svg xmlns="http://www.w3.org/2000/svg" width="69.673" height="69.673" viewBox="0 0 69.673 69.673"><defs><style>.a{fill:#c6e1f2;}.b{fill:#b6c9e4;}.c{fill:#98e9db;}</style></defs><g transform="translate(0)"><path class="a" d="M28.166,42.674a22.532,22.532,0,0,1,18.4-22.3A22.883,22.883,0,0,0,42.453,20,22.514,22.514,0,0,0,20,42.674V64.907l.372-.34a10.429,10.429,0,0,1,7.793-3.051Z" transform="translate(-17.278 -17.278)"/><g transform="translate(0 0)"><path class="b" d="M220.857,195.052a25.349,25.349,0,0,0-10.216-20.516,2.722,2.722,0,0,0-3.245,4.37,19.889,19.889,0,0,1,8.017,16.108c0,.009,0,.017,0,.026v17.1a12.981,12.981,0,0,0-10.811.373,20,20,0,0,1-24.7-5.853,2.722,2.722,0,1,0-4.364,3.254,25.441,25.441,0,0,0,31.5,7.465,7.612,7.612,0,0,1,8.8,1.473,3.548,3.548,0,0,0,2.3,1.137,2.632,2.632,0,0,0,2.721-2.722Z" transform="translate(-151.185 -150.322)"/><path class="b" d="M25.086,50.35A25.15,25.15,0,1,0,0,25.408v22.22a2.722,2.722,0,0,0,4.558,2.009,9.086,9.086,0,0,1,5.892-2.693,7.5,7.5,0,0,1,3.365.795A24.861,24.861,0,0,0,25.061,50.35ZM10.453,41.5a13.067,13.067,0,0,0-5.01,1s0-17.122,0-17.131a19.732,19.732,0,1,1,39.461,0A19.851,19.851,0,0,1,25.063,44.907a19.473,19.473,0,0,1-8.809-2.034,12.926,12.926,0,0,0-5.8-1.374Z" transform="translate(0 0)"/></g><path class="c" d="M108.3,164.4a3.4,3.4,0,1,1-3.4-3.4A3.4,3.4,0,0,1,108.3,164.4Zm-10.75,0a3.4,3.4,0,1,1-3.4-3.4A3.4,3.4,0,0,1,97.554,164.4Zm-10.75,0a3.4,3.4,0,1,1-3.4-3.4A3.4,3.4,0,0,1,86.8,164.4Z" transform="translate(-69.114 -139.091)"/></g></svg>
