<svg xmlns="http://www.w3.org/2000/svg" width="69.675" height="69.675" viewBox="0 0 69.675 69.675"><defs><style>.a{fill:#98e9db;}.b{fill:#4a7abc;}</style></defs><g transform="translate(0.289 0.289)"><path class="a" d="M42.486,7.5H15.157a2.157,2.157,0,1,0,0,4.315H42.486a2.157,2.157,0,0,0,0-4.315Z" transform="translate(24.743 14.421)"/><path class="a" d="M42.486,10.5H15.157a2.157,2.157,0,1,0,0,4.315H42.486a2.157,2.157,0,0,0,0-4.315Z" transform="translate(24.743 20.051)"/><path class="a" d="M42.486,13.5H15.157a2.157,2.157,0,1,0,0,4.315H42.486a2.157,2.157,0,0,0,0-4.315Z" transform="translate(24.743 25.681)"/><path class="a" d="M42.486,16.5H15.157a2.157,2.157,0,1,0,0,4.315H42.486a2.157,2.157,0,0,0,0-4.315Z" transform="translate(24.743 31.311)"/><path class="a" d="M42.486,19.5H15.157a2.157,2.157,0,1,0,0,4.315H42.486a2.157,2.157,0,0,0,0-4.315Z" transform="translate(24.743 36.941)"/><path class="b" d="M5.034,29.075H26.609a5.04,5.04,0,0,0,5.034-5.034V12.534A5.04,5.04,0,0,0,26.609,7.5H5.034A5.04,5.04,0,0,0,0,12.534V24.041A5.04,5.04,0,0,0,5.034,29.075Z" transform="translate(0.346 14.421)"/><path class="b" d="M5.034,38.075H26.609a5.04,5.04,0,0,0,5.034-5.034V21.534A5.04,5.04,0,0,0,26.609,16.5H5.034A5.04,5.04,0,0,0,0,21.534V33.041A5.04,5.04,0,0,0,5.034,38.075Z" transform="translate(0.346 31.311)"/><path class="a" d="M42.486,22.5H15.157a2.157,2.157,0,1,0,0,4.315H42.486a2.157,2.157,0,0,0,0-4.315Z" transform="translate(24.743 42.571)"/><path class="b" d="M48.992,0H13.034A5.04,5.04,0,0,0,8,5.034v7.192a5.04,5.04,0,0,0,5.034,5.034H48.992a5.04,5.04,0,0,0,5.034-5.034V5.034A5.04,5.04,0,0,0,48.992,0Z" transform="translate(15.359 0.346)"/><circle class="b" cx="9" cy="9" r="9" transform="translate(-0.289 -0.289)"/></g></svg>
