<svg xmlns="http://www.w3.org/2000/svg" width="68.373" height="54.699" viewBox="0 0 68.373 54.699"><defs><style>.a{fill:#c00000;}</style></defs><path class="a" d="M41.024,34.187H27.349a3.419,3.419,0,0,0-3.419,3.419V51.28A3.419,3.419,0,0,0,27.349,54.7H41.024a3.419,3.419,0,0,0,3.419-3.419V37.605A3.419,3.419,0,0,0,41.024,34.187ZM20.512,3.419A3.419,3.419,0,0,0,17.093,0H3.419A3.419,3.419,0,0,0,0,3.419V17.093a3.419,3.419,0,0,0,3.419,3.419H13.645l7.816,13.679a6.815,6.815,0,0,1,5.889-3.423h.03L20.512,18.75V13.675H44.443V6.837H20.512ZM64.955,0H51.28a3.419,3.419,0,0,0-3.419,3.419V17.093a3.419,3.419,0,0,0,3.419,3.419H64.955a3.419,3.419,0,0,0,3.419-3.419V3.419A3.419,3.419,0,0,0,64.955,0Z" transform="translate(68.373 54.699) rotate(180)"/></svg>
