<svg xmlns="http://www.w3.org/2000/svg" width="59.876" height="69.674" viewBox="0 0 59.876 69.674"><defs><style>.a{fill:#c6e1f2;}.b{fill:#4a7abc;}</style></defs><g transform="translate(-23.935 -181)"><g transform="translate(23.935 181)"><path class="a" d="M85.2,59.736,64.506,42.761a.919.919,0,0,1,0-1.431L85.2,24.287a7.047,7.047,0,0,1,7.887-.646l-.307-.249a15.178,15.178,0,0,0-19.126,0L59.361,34.99a9.084,9.084,0,0,0,0,14.11L73.652,60.7a15.178,15.178,0,0,0,19.126,0l.639-.518A7.047,7.047,0,0,1,85.2,59.736Z" transform="translate(-53.277 -17.279)"/><path class="b" d="M65.936,49.534a17.95,17.95,0,0,1-11.278-4l-14.292-11.6a11.806,11.806,0,0,1,0-18.337L54.658,4A17.9,17.9,0,0,1,77.214,4L91.505,15.6a11.818,11.818,0,0,1,3.935,12.347A2.722,2.722,0,1,1,90.2,26.487a6.376,6.376,0,0,0-2.121-6.662L73.784,8.226a12.51,12.51,0,0,0-15.7,0L43.8,19.825a6.362,6.362,0,0,0,0,9.884l14.292,11.6a12.51,12.51,0,0,0,15.672.019l2.387-2.03a2.722,2.722,0,1,1,3.527,4.146l-2.412,2.052-.048.04a17.949,17.949,0,0,1-11.278,4Z" transform="translate(-35.998 0)"/><path class="b" d="M65.938,197.534a17.95,17.95,0,0,1-11.278-4l-14.292-11.6a11.82,11.82,0,0,1-4.178-11.287,2.722,2.722,0,1,1,5.356.97,6.377,6.377,0,0,0,2.252,6.09l14.292,11.6a12.51,12.51,0,0,0,15.7,0l14.292-11.6a6.362,6.362,0,0,0,0-9.884l-14.292-11.6a12.51,12.51,0,0,0-15.691,0l-2,1.638a2.722,2.722,0,0,1-3.452-4.209L54.66,152a17.9,17.9,0,0,1,22.556,0l14.292,11.6a11.806,11.806,0,0,1,0,18.337l-14.292,11.6A17.95,17.95,0,0,1,65.938,197.534Z" transform="translate(-36 -127.86)"/></g></g></svg>
