<svg xmlns="http://www.w3.org/2000/svg" width="69.685" height="69.675" viewBox="0 0 69.685 69.675"><defs><style>.a{opacity:0.4;}.b,.c{fill:#4a7abc;}.b{opacity:0.25;}.d{fill:#00c9a7;}</style></defs><g class="a" transform="translate(-23.935 -107)"><g transform="translate(23.935 107)"><path class="b" d="M32.42,84.15A13.611,13.611,0,0,1,20,70.593V47.69a13.61,13.61,0,0,1,5.356-10.822l18.51-14.118a13.61,13.61,0,0,1,16.508,0l1.252.955a13.6,13.6,0,0,0-9.594,2.72L30.019,43.216a4.707,4.707,0,0,0-1.853,3.743V74.267A13.572,13.572,0,0,0,32.42,84.15Z" transform="translate(-17.278 -17.25)"/><path class="c" d="M53.352,69.712H16.332A16.351,16.351,0,0,1,0,53.38v-22.9A16.427,16.427,0,0,1,6.428,17.491L24.938,3.373a16.372,16.372,0,0,1,19.81,0L50.63,7.856V4.382a2.722,2.722,0,0,1,5.444,0v8.971A2.722,2.722,0,0,1,51.7,15.518L41.446,7.7a10.915,10.915,0,0,0-13.207,0L9.729,21.82a10.951,10.951,0,0,0-4.285,8.657v22.9A10.9,10.9,0,0,0,16.332,64.268h37.02A10.9,10.9,0,0,0,64.241,53.38v-22.9A10.958,10.958,0,0,0,60,21.79a2.722,2.722,0,1,1,3.3-4.329,16.433,16.433,0,0,1,6.379,13.016v22.9A16.351,16.351,0,0,1,53.352,69.712Z" transform="translate(0 -0.037)"/><path class="d" d="M197.805,234.365a3.4,3.4,0,1,1-3.4-3.4A3.4,3.4,0,0,1,197.805,234.365Zm7.486-3.4a3.4,3.4,0,1,0,3.4,3.4A3.4,3.4,0,0,0,205.291,230.962ZM194.4,241.85a3.4,3.4,0,1,0,3.4,3.4A3.4,3.4,0,0,0,194.4,241.85Zm10.888,0a3.4,3.4,0,1,0,3.4,3.4A3.4,3.4,0,0,0,205.291,241.85Z" transform="translate(-165.004 -199.532)"/></g></g></svg>
