<svg xmlns="http://www.w3.org/2000/svg" width="69.674" height="69.674" viewBox="0 0 69.674 69.674"><defs><style>.a{fill:#c6e1f2;opacity:0.25;}.b{fill:#b6c9e4;}</style></defs><g transform="translate(0)"><path class="a" d="M50.275,22.248A19.564,19.564,0,0,0,40.6,31.569a23.784,23.784,0,0,0-2.4,7.884l-3.36,23.635c-.545,2.637,1.214,5.512,3.987,5.5l-.665,2.586H25.444a5.443,5.443,0,1,1,0-10.887h1.433l3.337-23.807A22.8,22.8,0,0,1,49.647,20.136C49.852,20.842,50.065,21.544,50.275,22.248Zm13,12.179A14.431,14.431,0,0,1,73.753,20.549a14.425,14.425,0,1,0,0,27.756A14.431,14.431,0,0,1,63.275,34.427Z" transform="translate(-17.279 -17.28)"/><path class="b" d="M43,42.594H21.093a2.722,2.722,0,1,1,0-5.443H43a2.722,2.722,0,0,1,0,5.443Zm26.672,5.852a8.177,8.177,0,0,0-7.213-8.11l-.02-.149a2.722,2.722,0,1,0-5.394.732l.333,2.449a2.722,2.722,0,0,0,2.7,2.356h1.433a2.722,2.722,0,1,1,0,5.443H8.165a2.722,2.722,0,1,1,0-5.443H9.6a2.722,2.722,0,0,0,2.7-2.344l2.93-20.9A19.872,19.872,0,0,1,33.151,5.435,2.722,2.722,0,1,0,32.713.009,25.316,25.316,0,0,0,9.833,21.721L7.223,40.335a8.165,8.165,0,0,0,.942,16.276H61.509A8.174,8.174,0,0,0,69.674,48.446Zm0-31.3A17.146,17.146,0,1,0,52.528,34.293,17.166,17.166,0,0,0,69.674,17.147Zm-5.443,0a11.7,11.7,0,1,1-11.7-11.7A11.716,11.716,0,0,1,64.231,17.147Z" transform="translate(0 0)"/><path class="b" d="M207.028,107.675a8.073,8.073,0,0,1-8.011-7.176,2.722,2.722,0,1,1,5.408-.617,2.617,2.617,0,0,0,5.206,0,2.722,2.722,0,1,1,5.408.617A8.074,8.074,0,0,1,207.028,107.675Z" transform="translate(-171.919 -38)"/></g></svg>
