<svg xmlns="http://www.w3.org/2000/svg" width="65.653" height="86" viewBox="0 0 65.653 86"><defs><style>.a{fill:#5b9bd5;}</style></defs><g transform="translate(-270.051 -168.986)"><path d="M286.1,199.145c-.56-2.088-1.2-4.081-1.621-6.12a20.283,20.283,0,0,1,.683-12.011c2.265-5.56,6.494-9.072,12.072-10.967a20.335,20.335,0,0,1,24.34,9.629,17.8,17.8,0,0,1,1.525,12.454,31.2,31.2,0,0,1-3.012,8.08c-.113.218-.224.438-.355.7,1.1.733,2.181,1.435,3.241,2.174,5.946,4.136,10.109,9.543,11.865,16.666a33.732,33.732,0,0,1,.855,7.915c.029,4.664-.008,9.328.014,13.993a10.612,10.612,0,0,1-2.043,7.048,12.587,12.587,0,0,1-8.091,4.642c-3.14.5-6.319.755-9.481,1.117-1.2.137-2.4.224-3.591.414a20.525,20.525,0,0,1-5.564-.295c-3.749-.414-7.5-.845-11.226-1.42a42.878,42.878,0,0,1-16.48-6.535c-1.9-1.206-3.79-2.437-5.58-3.794a7.1,7.1,0,0,1-3.042-5.55c-.037-.976-.209-1.947-.247-2.922-.123-3.134-.382-6.273-.284-9.4.322-10.35,4.913-18.395,13.453-24.21.433-.295.877-.572,1.32-.848C285.268,199.635,285.7,199.384,286.1,199.145Zm-2.369,9.372c1.3.344,1.46.647.979,1.839-.535,1.327-1.1,2.642-1.622,3.975-2.5,6.378-4.215,12.913-3.891,19.846a17.661,17.661,0,0,0,2.23,8.616,7.153,7.153,0,0,0,3.819,3.2,93.3,93.3,0,0,0,19.1,4.621,51.437,51.437,0,0,0,15.495.034,3.839,3.839,0,0,0,2.9-3.356c-.005-3.093-.018-6.185-.067-9.278a123.049,123.049,0,0,0-1.931-19.249c-.175-1-.3-2.01-.445-3.015a2.205,2.205,0,0,1,.406.729c2.269,6.028,3.011,12.335,3.4,18.7.291,4.72.549,9.442.826,14.162.036.6.35.8.913.561.771-.332,1.521-.714,2.3-1.039,2.9-1.217,4.059-3.546,4.155-6.532.076-2.387.172-4.775.142-7.162-.051-3.91.029-7.84-.351-11.723-.814-8.315-5.145-14.387-12.435-18.407a6.26,6.26,0,0,0-6.125-.036c-.877.427-1.76.852-2.668,1.206A19,19,0,0,1,300.45,207.5a18.645,18.645,0,0,1-8.5-4.1c-2.126-1.719-3.734-1.854-5.982-.412-7.949,5.1-12.179,12.392-12.787,21.811a71.491,71.491,0,0,0,.277,9.808,8.211,8.211,0,0,0,2.336,5.642c.13.126.217.295.347.421.156.149.337.27.508.4a2.014,2.014,0,0,0,.324-.616c.255-2.167.485-4.337.72-6.506.345-3.207.576-6.432,1.064-9.618a59.624,59.624,0,0,1,3.276-11.016C282.6,211.719,283.162,210.115,283.728,208.517Zm20.582-3.65c.012-.063.023-.124.035-.187a15.188,15.188,0,0,0,11.375-4.715,16.116,16.116,0,0,0-1.1-23.69,17.789,17.789,0,0,0-20.71-.967,14.886,14.886,0,0,0-6.738,9.315c-.77,3.411-.142,6.74.877,10a12.855,12.855,0,0,0,9.566,9.1C299.8,204.293,302.075,204.5,304.31,204.868Z"/><path class="a" d="M303.006,417.309c-.565,1.6-1.124,3.2-1.7,4.8a59.593,59.593,0,0,0-3.276,11.016c-.489,3.185-.718,6.411-1.064,9.618-.233,2.17-.464,4.339-.72,6.506a2.015,2.015,0,0,1-.324.616c-.171-.134-.352-.255-.508-.4-.131-.124-.217-.295-.347-.421a8.205,8.205,0,0,1-2.336-5.642,71.48,71.48,0,0,1-.277-9.808c.609-9.42,4.838-16.711,12.787-21.811,2.246-1.442,3.855-1.307,5.982.412a18.658,18.658,0,0,0,8.5,4.1,19,19,0,0,0,10.415-1.289c.908-.354,1.791-.778,2.668-1.206a6.261,6.261,0,0,1,6.125.036c7.291,4.018,11.621,10.092,12.435,18.407.38,3.882.3,7.813.351,11.723.031,2.387-.066,4.775-.142,7.162-.1,2.986-1.252,5.317-4.155,6.532-.774.325-1.525.707-2.3,1.039-.564.243-.878.042-.913-.561-.277-4.72-.535-9.442-.826-14.162-.392-6.368-1.135-12.675-3.4-18.7a2.193,2.193,0,0,0-.406-.729c.147,1,.27,2.014.445,3.015a123.069,123.069,0,0,1,1.931,19.249c.049,3.093.061,6.185.067,9.278a3.839,3.839,0,0,1-2.9,3.356,51.394,51.394,0,0,1-15.495-.034,93.478,93.478,0,0,1-19.1-4.62,7.153,7.153,0,0,1-3.819-3.2,17.654,17.654,0,0,1-2.23-8.616c-.324-6.932,1.39-13.467,3.891-19.846.523-1.333,1.087-2.647,1.622-3.975C304.465,417.956,304.307,417.653,303.006,417.309Z" transform="translate(-19.278 -208.791)"/><path class="a" d="M410.928,228.651a.1.1,0,0,1-.114.08c-2.271-.381-4.583-.6-6.8-1.194a13.42,13.42,0,0,1-9.852-9.66c-1.049-3.462-1.7-6.993-.9-10.614a15.786,15.786,0,0,1,6.94-9.886,17.888,17.888,0,0,1,21.33,1.027,17.452,17.452,0,0,1,1.135,25.14,15.408,15.408,0,0,1-11.611,5,.126.126,0,0,0-.122.1Z" transform="translate(-106.543 -22.892)"/></g></svg>
