<svg xmlns="http://www.w3.org/2000/svg" width="79.387" height="73.175" viewBox="0 0 79.387 73.175"><defs><style>.a{fill:none;stroke:#4a7abc;stroke-width:3.5px;}.b{fill:#00c9a7;}</style></defs><g transform="translate(1.75 -17.58)"><path class="a" d="M51.71,371.4H9.486A9.476,9.476,0,0,1,0,361.915v-6.128H42.812v6.128A9.48,9.48,0,0,0,51.71,371.4Z" transform="translate(0 -282.396)"/><path class="a" d="M398.626,26.381V37.63h-14.1V26.381a7.051,7.051,0,1,1,14.1,0Z" transform="translate(-322.739)"/><path class="a" d="M76.537,19.331h50.619a7.04,7.04,0,0,0-7.051,7.051V79.52a9.386,9.386,0,0,1-2.77,6.716,9.591,9.591,0,0,1-6.716,2.77h-.588a9.48,9.48,0,0,1-8.9-9.486V73.392H69.486v-.084l.336-47.345A6.664,6.664,0,0,1,76.537,19.331Z" transform="translate(-58.321 -0.001)"/><g transform="translate(21.542 30.409)"><path class="b" d="M111.172,164.747A3.747,3.747,0,1,1,107.426,161,3.747,3.747,0,0,1,111.172,164.747Zm-11.84,0A3.747,3.747,0,1,1,95.586,161,3.747,3.747,0,0,1,99.333,164.747Zm-11.84,0A3.747,3.747,0,1,1,83.747,161,3.747,3.747,0,0,1,87.493,164.747Z" transform="translate(-80 -161)"/><path class="b" d="M99.333,164.747A3.747,3.747,0,1,1,95.586,161,3.747,3.747,0,0,1,99.333,164.747Zm-11.84,0A3.747,3.747,0,1,1,83.747,161,3.747,3.747,0,0,1,87.493,164.747Z" transform="translate(-80 -149.513)"/><path class="b" d="M87.493,164.747A3.747,3.747,0,1,1,83.747,161,3.747,3.747,0,0,1,87.493,164.747Z" transform="translate(-80 -138.025)"/></g></g></svg>
