<svg xmlns="http://www.w3.org/2000/svg" width="79.385" height="73.173" viewBox="0 0 79.385 73.173"><defs><style>.a{fill:none;stroke:#b6c9e4;stroke-width:3.5px;}.b{fill:#98e9db;}</style></defs><g transform="translate(1.75 -17.58)"><path class="a" d="M51.709,371.4H9.486A9.476,9.476,0,0,1,0,361.915v-6.128H42.811v6.128A9.479,9.479,0,0,0,51.709,371.4Z" transform="translate(0 -282.398)"/><path class="a" d="M398.625,26.381V37.63h-14.1V26.381a7.051,7.051,0,1,1,14.1,0Z" transform="translate(-322.741)"/><path class="a" d="M76.537,19.331h50.618a7.04,7.04,0,0,0-7.051,7.051V79.518a9.386,9.386,0,0,1-2.77,6.715A9.591,9.591,0,0,1,110.618,89h-.588a9.479,9.479,0,0,1-8.9-9.486V73.39H69.486v-.084l.336-47.344A6.664,6.664,0,0,1,76.537,19.331Z" transform="translate(-58.322 -0.001)"/><g transform="translate(21.542 30.409)"><path class="b" d="M111.172,164.747A3.747,3.747,0,1,1,107.425,161,3.747,3.747,0,0,1,111.172,164.747Zm-11.839,0A3.747,3.747,0,1,1,95.586,161,3.747,3.747,0,0,1,99.332,164.747Zm-11.839,0A3.747,3.747,0,1,1,83.747,161,3.747,3.747,0,0,1,87.493,164.747Z" transform="translate(-80 -161)"/><path class="b" d="M99.332,164.747A3.747,3.747,0,1,1,95.586,161,3.747,3.747,0,0,1,99.332,164.747Zm-11.839,0A3.747,3.747,0,1,1,83.747,161,3.747,3.747,0,0,1,87.493,164.747Z" transform="translate(-80 -149.513)"/><path class="b" d="M87.493,164.747A3.747,3.747,0,1,1,83.747,161,3.747,3.747,0,0,1,87.493,164.747Z" transform="translate(-80 -138.026)"/></g></g></svg>
