<svg xmlns="http://www.w3.org/2000/svg" xmlns:xlink="http://www.w3.org/1999/xlink" width="132.979" height="42.881" viewBox="0 0 132.979 42.881"><defs><style>.a{fill:url(#a);}.b{fill:url(#b);}.c{fill:url(#c);}.d{fill:url(#d);}.e{fill:url(#e);}.f{fill:url(#f);}</style><linearGradient id="a" x1="0.484" y1="-3.527" x2="0.519" y2="4.688" gradientUnits="objectBoundingBox"><stop offset="0.107" stop-color="#414042"/><stop offset="1" stop-color="#58595b"/></linearGradient><linearGradient id="b" x1="0.481" y1="-3.517" x2="0.517" y2="4.698" xlink:href="#a"/><linearGradient id="c" x1="0.48" y1="-3.369" x2="0.519" y2="4.515" xlink:href="#a"/><linearGradient id="d" x1="0.452" y1="-2.225" x2="0.573" y2="3.628" xlink:href="#a"/><linearGradient id="e" x1="0.485" y1="-3.394" x2="0.517" y2="4.522" xlink:href="#a"/><linearGradient id="f" x1="0.499" y1="-0.36" x2="0.502" y2="1.466" gradientUnits="objectBoundingBox"><stop offset="0" stop-color="#4f64ae"/><stop offset="1" stop-color="#3dc6ee"/></linearGradient></defs><g transform="translate(-22.58 -14.31)"><g transform="translate(22.58 35.878)"><path class="a" d="M26.2,122.365v7.655c0,2.226,1.217,3.916,3.53,3.916a3.849,3.849,0,0,0,3.738-4.1v-7.477h3.589v14.658H33.826l-.237-1.989a6.514,6.514,0,0,1-4.955,2.195c-3.5,0-6.054-2.64-6.054-7.181V122.36H26.2Z" transform="translate(-22.58 -116.128)"/><path class="b" d="M112.558,136.341v-7.654c0-2.226-1.217-3.916-3.53-3.916a3.849,3.849,0,0,0-3.738,4.1v7.477H101.7V121.686h3.234l.237,1.989a6.6,6.6,0,0,1,4.806-2.195c3.443,0,6.2,2.581,6.2,7.181v7.685h-3.62Z" transform="translate(-81.343 -115.474)"/><path class="c" d="M190.873,133.943a7.524,7.524,0,0,1-5.637,2.316c-4.243,0-7.775-2.552-7.775-7.745s3.53-7.745,7.775-7.745a6.953,6.953,0,0,1,5.282,2.166l-2.285,2.4a4.442,4.442,0,0,0-2.938-1.158,4.116,4.116,0,0,0-4.214,4.333,3.986,3.986,0,0,0,4.155,4.274,4.4,4.4,0,0,0,3.206-1.217Z" transform="translate(-137.61 -114.947)"/><path class="d" d="M249.534,100.251a2.137,2.137,0,0,1-4.274,0A2.137,2.137,0,0,1,249.534,100.251Zm-3.944,4.065V119h3.62V104.316h-3.62Z" transform="translate(-187.966 -98.137)"/><path class="e" d="M293.312,121.362h3.471v14.63h-3.412l-.178-2.136c-.831,1.721-3.116,2.552-4.747,2.581-4.333.031-7.536-2.64-7.536-7.773,0-5.046,3.353-7.685,7.626-7.654a5.374,5.374,0,0,1,4.66,2.375Zm-8.784,7.3a4.191,4.191,0,0,0,4.333,4.451c5.7,0,5.7-8.871,0-8.871A4.166,4.166,0,0,0,284.528,128.661Z" transform="translate(-214.443 -115.124)"/></g><path class="f" d="M294.72,29.73c-.193-.908-3.044-2.609-3.044-2.609s-.088-4.348-7.389-5.565c0,0-4.729-3.049-4.59-.888,0,0,.4,1.238-.18,1.778s-6.2,2.918-10.336,1.835a21.262,21.262,0,0,1-6.376-2.666A38.953,38.953,0,0,0,251.459,16.1a2.267,2.267,0,0,0-4.132-.738,14.379,14.379,0,0,0-5.277.52,17.224,17.224,0,0,0-6.695,4.317s-4.317,4.665-9.62,6.52-10.752,1.1-10.9-3.623c0,0,3.247.314,1.894-3.476a2.5,2.5,0,0,0-.53-.787h.008c-1.122-1.13-4.441-3.695-6.18,3.291,0,0-1.971,12.448,15.07,10.158a35.613,35.613,0,0,0,7.9-3.291,2.263,2.263,0,0,0,2.887.069c.839.919,2.83,2.285,7.469,2.959l-3.3,5.55s-.566.854.841,1.42,6.986,2.768,9.317,5.522c0,0,.522.615,1.109-.211s1.863-2.586.774-4.238-4.94-3.363-4.94-3.363a21.6,21.6,0,0,0,4.492-4.989s3.926,3.656,4.955,6.106l-8.143,10.8s-3.507,3.906.131,7.865a1.921,1.921,0,0,0,1,.293l3.978.031a1.094,1.094,0,0,0,.443-.1c.242-.17.52-.6.018-1.654a5.676,5.676,0,0,0-2.841-2.357,4.989,4.989,0,0,1,1.971-2.588c1.66-1.31,11.138-6.422,15.741-7.773a.284.284,0,0,1,.082-.033,2.935,2.935,0,0,0,.89-.486c1.883-1.868,10.935-10.459,15.782-8.13C291.069,36.3,294.913,30.638,294.72,29.73Zm-11.311-6.811.283.183.332.054c5.812.967,6.034,3.965,6.034,4l.005.283a3.911,3.911,0,0,0-2.648-.949,1.08,1.08,0,0,0-1.572-.656c-1.214-1.343-3.286-1.891-4.973-2.462a2.739,2.739,0,0,0,.571-1.513A15.688,15.688,0,0,1,283.409,22.919Zm-3.021.9c1.768.636,3.659,1.112,5.02,2.465a1.07,1.07,0,0,0-.118.479c-.453.1-.9.226-1.351.332-.937.216-1.891.35-2.838.5-1.567.25-3.2.427-4.732.831a5.821,5.821,0,0,0-1.194.471,9.643,9.643,0,0,1,1.057-1.117,16.512,16.512,0,0,0,1.634-1.86,6.914,6.914,0,0,0,.54-.929c.242-.142.484-.283.726-.427a.275.275,0,0,0,.116-.129A7.954,7.954,0,0,0,280.389,23.814ZM257.654,41.089c.015-.687.018-1.374.059-2.056l.2-.265c.16.175.3.376.453.543a4.567,4.567,0,0,0,1,.741,9.961,9.961,0,0,0,2.823.991,21.974,21.974,0,0,0,2.743.672c.242.028.484.049.726.067a100.069,100.069,0,0,0-9.767,4.763c.105-.229.216-.455.337-.672a14.5,14.5,0,0,0,1.093-2.156A8.068,8.068,0,0,0,257.654,41.089Zm7.716.1a18.315,18.315,0,0,1-3.028-.7,12.023,12.023,0,0,1-2.684-.934,4.115,4.115,0,0,1-1.119-.911c-.1-.113-.19-.224-.283-.329l.067-.087a19.1,19.1,0,0,0,3.988-.931,1.513,1.513,0,0,0,1.22.618,1.192,1.192,0,0,0,.167-.01,9.108,9.108,0,0,0,3.494,3.288c-.075.026-.149.054-.224.082C266.436,41.246,265.9,41.228,265.371,41.184Zm-2.835-7.163a19.349,19.349,0,0,0-1.158-1.9,15.763,15.763,0,0,1-1.348-2.833,2.267,2.267,0,0,0,1.2-1.42c1.366.283,2.686.782,4.073.939a16.507,16.507,0,0,0,4.546-.046,18.079,18.079,0,0,0,4.518-1.639c1.05-.486,2.074-1.027,3.08-1.593a12.612,12.612,0,0,1-1.492,1.7A14.047,14.047,0,0,0,274.6,28.7a1.84,1.84,0,0,0-.643-.116,1.865,1.865,0,0,0-1.865,1.865,1.82,1.82,0,0,0,.1.6c-1.268.993-2.727,1.649-4.063,2.547a35.7,35.7,0,0,1-3.278,2.061,1.517,1.517,0,0,0-1.33-.787,1.534,1.534,0,0,0-.576.113C262.823,34.665,262.687,34.34,262.535,34.021Zm6.134,6.692c-.214.059-.437.129-.672.2a7.581,7.581,0,0,1-3.723-3.2,1.518,1.518,0,0,0,.774-1.322,1.262,1.262,0,0,0-.008-.139,17.756,17.756,0,0,0,1.894-1.106c.669-.448,1.31-.939,1.991-1.366S270.305,33,270.99,32.6a13.5,13.5,0,0,0,1.487-1.027,1.9,1.9,0,0,0,.3.314c-.731,1.3-1.41,2.637-2.033,3.991a12.383,12.383,0,0,0-1.2,3.993C269.166,40.22,268.872,40.51,268.669,40.714Zm-6.8-17.774a22.716,22.716,0,0,0,6.9,2.91,10.944,10.944,0,0,0,2.774.332,18.512,18.512,0,0,0,4.837-.72c-.628.34-1.261.666-1.9.978a19.136,19.136,0,0,1-4.773,1.768,14.115,14.115,0,0,1-4.523.005c-1.31-.2-2.563-.638-3.857-.906,0-.021,0-.039,0-.059a2.269,2.269,0,0,0-3.1-2.112A38.738,38.738,0,0,0,255.4,20.84a10.425,10.425,0,0,0-2.614-2.493c-.126-.085-.25-.172-.371-.26a38.551,38.551,0,0,1,9.43,4.832Zm-25.361-1.6a16.011,16.011,0,0,1,5.962-3.89l.031-.008.018-.005a12.14,12.14,0,0,1,3.535-.5c.316,0,.633.01.952.031a2.266,2.266,0,0,0,4.148.826c.051.054.1.1.154.149a18.545,18.545,0,0,0,1.683,1.243,10.968,10.968,0,0,1,2.632,2.979c.715,1.057,1.5,2.1,2.133,3.219a2.288,2.288,0,0,0-.672.733c-3.695-1.629-6.913-4.387-11-5.025a16.923,16.923,0,0,0-3.785-.064,9.056,9.056,0,0,0-3.6.931,12.065,12.065,0,0,0-2.426,1.943,10.4,10.4,0,0,0-1.168,1.2,2.318,2.318,0,0,0-.63-.09,2.271,2.271,0,0,0-1.979,1.158,7.36,7.36,0,0,0-1.783-.113A32.073,32.073,0,0,0,236.5,21.344Zm-15.842,7.938a14.883,14.883,0,0,0,2.3-.188,7.806,7.806,0,0,0-1.459,1.847c-.108,0-.216,0-.322,0a13.926,13.926,0,0,1-5.21-.859,12.783,12.783,0,0,1-1.8-2.7,7.312,7.312,0,0,1-.921-2.545,2.577,2.577,0,0,1,.046-.8C213.8,27.3,216.544,29.282,220.663,29.282Zm-7.42-1.081a8,8,0,0,1-1.626-5.766c.594-2.331,1.374-3.376,1.889-3.376a2.446,2.446,0,0,1,1.3.69l0,.005s.015.01.039.028.069.062.1.093a1.624,1.624,0,0,1,.35.589,3.369,3.369,0,0,1,.131.62c.005.1-.015.414-.471.4l-.98-.129h0l-.008,0-.332-.044c-.224.01-.476.118-.5.548l.018.319c0,.005,0,.01,0,.015s0-.01,0-.015l.036.636c-.821,1.109-.5,2.712.028,3.921a15.57,15.57,0,0,0,1.474,2.7A6.388,6.388,0,0,1,213.243,28.2Zm-.044-5.689c-.008-.046-.015-.105-.026-.18C213.184,22.389,213.191,22.453,213.2,22.513Zm-.026-.2c-.005-.036-.01-.077-.018-.121C213.158,22.222,213.166,22.266,213.173,22.314Zm11.6,8.38c-.9.118-1.765.2-2.586.229a5.98,5.98,0,0,1,1.124-1.377,10.093,10.093,0,0,1,.967-.71,19.646,19.646,0,0,0,1.986-.579,20.874,20.874,0,0,0,3.262-1.49,8.126,8.126,0,0,1,2.753-.044,2.25,2.25,0,0,0-.072.561,2.065,2.065,0,0,0,.021.283A34.871,34.871,0,0,1,224.775,30.694Zm20.563,1.114Zm.015.023a5.869,5.869,0,0,1,.89,3.515c-.072.062-.116.1-.121.1l-1.472,1.191a9.692,9.692,0,0,0-1.66.134,5.653,5.653,0,0,0-.654.124Zm5.377,9.129c.275.419.152.939-.2,1.569a29.5,29.5,0,0,0-8.6-4.863,3.726,3.726,0,0,1,1.4-.36c.316-.041.641-.082.965-.093l2.2.975C247.867,38.8,250.17,40.111,250.731,40.961Zm-3.916-6.108a5.979,5.979,0,0,0-1.166-3.6c.075-.4-.327-.558-.571-.612l-1.495-.219c-3.546-.517-5.269-1.423-6.08-2.063a3.666,3.666,0,0,1-.759-.993c0-.028.005-.054.005-.08a2.256,2.256,0,0,0-.185-.9,10.88,10.88,0,0,1,8.028.363c1.3.522,2.519,1.225,3.811,1.768a14.2,14.2,0,0,1,1.891.911c.18.108.373.216.569.334l-.646,1.173A17.578,17.578,0,0,1,246.815,34.852Zm5.928-4.323-.692-.646a.009.009,0,0,1,0,.005c-.021-.023-.039-.041-.059-.062l-.18-.167a.9.9,0,0,0-.368-.19c-.1-.064-.2-.126-.3-.19a15.791,15.791,0,0,0-1.971-1.063c-1.428-.62-2.812-1.346-4.245-1.95a11.445,11.445,0,0,0-8.663-.381,2.267,2.267,0,0,0-.615-.545,12.173,12.173,0,0,1,1.148-1.135,10.8,10.8,0,0,1,2.516-1.909,9.411,9.411,0,0,1,3.708-.733,14.487,14.487,0,0,1,3.744.242c3.7.808,6.692,3.3,10.1,4.835a2.222,2.222,0,0,0-.082.6,2.262,2.262,0,0,0,2.691,2.228l.185.5a20.31,20.31,0,0,0,1.979,3.636,10.815,10.815,0,0,1,.823,1.7,1.519,1.519,0,0,0-.448,1.075,1.453,1.453,0,0,0,.044.352c-.28.077-.563.149-.846.229a17.615,17.615,0,0,1-2.738.664c-.064.008-.126.01-.19.015l-.193-.458C256.957,34.5,253.17,30.929,252.743,30.53ZM249.7,49.657l7.438-9.865a12.357,12.357,0,0,1-.378,3.772,14.179,14.179,0,0,1-1.225,2.352c-.2.35-.355.744-.53,1.127a27.661,27.661,0,0,0-2.869,1.8,9.419,9.419,0,0,0-.978.883c-.214.093-.43.18-.643.27a12.684,12.684,0,0,0-1.479.687,5.046,5.046,0,0,1,.618-.97Zm2.416,5.522-2.547-.021a3.812,3.812,0,0,1-.98-3.1c.147-.558.376-.63.376-.63l-.005-.005a6.508,6.508,0,0,1,.8-.458c.2-.1.4-.2.6-.288a4.788,4.788,0,0,0-.792,1.714l-.113.6c-.013.2.039.7.823,1.112l.319.118A5.051,5.051,0,0,1,252.117,55.179ZM273.509,36.45c-1.284,1-2.424,1.991-3.3,2.8a13.825,13.825,0,0,1,1.119-3.262c.594-1.289,1.25-2.563,1.948-3.8a1.862,1.862,0,0,0,2.218-2.8,13.233,13.233,0,0,1,3.955-.921c1.765-.278,3.566-.527,5.3-.98.226-.059.458-.118.692-.172a1.084,1.084,0,0,0,.81.533,3.815,3.815,0,0,1-.057,1.613,15.954,15.954,0,0,1-.826,2.408,6.281,6.281,0,0,0-1.593-.2C281.04,31.67,277.587,33.278,273.509,36.45Zm14.959-3.7h0a4.917,4.917,0,0,1-2.125-.52c-.142-.067-.288-.129-.435-.183.329-.79.587-1.624.839-2.429a3.672,3.672,0,0,0,.062-1.853,1.081,1.081,0,0,0,.6-.7,3.582,3.582,0,0,1,1.819.489c.63.381,1.155.908,1.786,1.289a5.959,5.959,0,0,1,1.822,1.176.394.394,0,0,0,.044.049A5.639,5.639,0,0,1,288.468,32.748Z" transform="translate(-139.168)"/></g></svg>